<svg xmlns="http://www.w3.org/2000/svg" height="30" viewBox="0 0 512 512" width="30"><defs xmlns="http://www.w3.org/2000/svg"><filter id="myfilter" x="0" y="0" width="200%" height="200%"><feOffset result="offOut" in="SourceAlpha" dx="2" dy="2"/><feGaussianBlur result="blurOut" in="offOut" stdDeviation="2"/><feBlend in="SourceGraphic" in2="blurOut" mode="normal"/></filter></defs><g filter="url(#myfilter)"><path d="m0 452h512v60h-512zm0 0"/><path d="m256 60c-49.625 0-90 40.375-90 90v182h180v-182c0-49.625-40.375-90-90-90zm45 165h-90v-30h90zm0-60h-90v-30h90zm0 0"/><path d="m136 150c0-66.167969 53.832031-120 120-120s120 53.832031 120 120v182h30v-182c0-82.710938-67.289062-150-150-150s-150 67.289062-150 150v182h30zm0 0"/><path d="m76 362h360v60h-360zm0 0"/></g></svg>